<?xml version="1.0" encoding="UTF-8"?>
<svg width="60" height="60" viewBox="0 0 60 60" fill="none" xmlns="http://www.w3.org/2000/svg">
  <rect width="60" height="60" rx="12" fill="#5856D6"/>
  <path d="M20.9 40H15.5V20H22.8C25.2333 20 27.2333 20.6 28.8 21.8C30.4 23 31.2 24.8 31.2 27.2C31.2 29.6 30.4 31.4 28.8 32.6C27.2333 33.8 25.2333 34.4 22.8 34.4H20.9V40Z" fill="white"/>
  <path d="M34.7 20H40.1L45.3 40H40.1L39.3 36.8H35.3L34.6 40H29.5L34.7 20Z" fill="white"/>
  <path d="M24 45.6C24 46.3 23.6 46.9 22.8 47.4C22.0333 47.8667 21.0667 48.1 19.9 48.1C18.9 48.1 18 47.9667 17.2 47.7C16.4 47.4 15.7333 47 15.2 46.5L16.9 44.2C17.7667 45 18.7667 45.4 19.9 45.4C20.5 45.4 20.9667 45.3 21.3 45.1C21.6333 44.9 21.8 44.6333 21.8 44.3C21.8 43.9667 21.6333 43.7 21.3 43.5C20.9667 43.3 20.3667 43.1 19.5 42.9C18.5667 42.7 17.8 42.4667 17.2 42.2C16.6 41.9333 16.1333 41.6 15.8 41.2C15.4667 40.7667 15.3 40.2333 15.3 39.6C15.3 38.6 15.7 37.8 16.5 37.2C17.3 36.6 18.3333 36.3 19.6 36.3C21.2667 36.3 22.6333 36.7667 23.7 37.7L22.2 39.9C21.4 39.3667 20.5 39.1 19.5 39.1C18.3 39.1 17.7 39.4333 17.7 40.1C17.7 40.4333 17.8667 40.7 18.2 40.9C18.5333 41.0667 19.0667 41.2333 19.8 41.4C20.8667 41.6667 21.7 41.9 22.3 42.1C22.9 42.3 23.4 42.6333 23.8 43.1C24.2 43.5667 24.4 44.2 24.4 45C24.4 45.2 24.3667 45.4 24.3 45.6H24Z" fill="white"/>
  <path d="M30.0008 36.5H32.5008V45.3H37.9008V48H30.0008V36.5Z" fill="white"/>
</svg>