<?xml version="1.0" encoding="UTF-8"?>
<svg width="120" height="120" viewBox="0 0 120 120" fill="none" xmlns="http://www.w3.org/2000/svg">
  <rect width="120" height="120" rx="24" fill="#5856D6"/>
  <path d="M41.8 80H31V40H45.6C50.4667 40 54.4667 41.2 57.6 43.6C60.8 46 62.4 49.6 62.4 54.4C62.4 59.2 60.8 62.8 57.6 65.2C54.4667 67.6 50.4667 68.8 45.6 68.8H41.8V80ZM41.8 59.2H45.6C47.3333 59.2 48.6667 58.7333 49.6 57.8C50.5333 56.8 51 55.6 51 54.2C51 52.7333 50.5333 51.5333 49.6 50.6C48.6667 49.6667 47.3333 49.2 45.6 49.2H41.8V59.2Z" fill="white"/>
  <path d="M69.4 40H80.2L90.6 80H80.2L78.6 73.6H70.6L69.2 80H59L69.4 40ZM72.2 65.2H77L74.6 52.8L72.2 65.2Z" fill="white"/>
  <path d="M48 91.2C48 92.6 47.2 93.8 45.6 94.8C44.0667 95.7333 42.1333 96.2 39.8 96.2C37.8 96.2 36 95.9333 34.4 95.4C32.8 94.8 31.4667 94 30.4 93L33.8 88.4C35.5333 90 37.5333 90.8 39.8 90.8C41 90.8 41.9333 90.6 42.6 90.2C43.2667 89.8 43.6 89.2667 43.6 88.6C43.6 87.9333 43.2667 87.4 42.6 87C41.9333 86.6 40.7333 86.2 39 85.8C37.1333 85.4 35.6 84.9333 34.4 84.4C33.2 83.8667 32.2667 83.2 31.6 82.4C30.9333 81.5333 30.6 80.4667 30.6 79.2C30.6 77.2 31.4 75.6 33 74.4C34.6 73.2 36.6667 72.6 39.2 72.6C42.5333 72.6 45.2667 73.5333 47.4 75.4L44.4 79.8C42.8 78.7333 41 78.2 39 78.2C36.6 78.2 35.4 78.8667 35.4 80.2C35.4 80.8667 35.7333 81.4 36.4 81.8C37.0667 82.1333 38.1333 82.4667 39.6 82.8C41.7333 83.3333 43.4 83.8 44.6 84.2C45.8 84.6 46.8 85.2667 47.6 86.2C48.4 87.1333 48.8 88.4 48.8 90C48.8 90.4 48.7333 90.8 48.6 91.2H48Z" fill="white"/>
  <path d="M60.0016 73H65.0016V90.6H75.8016V96H60.0016V73Z" fill="white"/>
</svg>