<?xml version="1.0" encoding="UTF-8"?>
<svg width="64" height="64" viewBox="0 0 64 64" fill="none" xmlns="http://www.w3.org/2000/svg">
  <path d="M32 12L35.2 21.6H45.3L37.1 27.5L40.2 37.1L32 31.2L23.8 37.1L26.9 27.5L18.7 21.6H28.8L32 12Z" fill="#5856D6"/>
  <path d="M10 42C10 40.3431 11.3431 39 13 39H51C52.6569 39 54 40.3431 54 42V50C54 51.6569 52.6569 53 51 53H13C11.3431 53 10 51.6569 10 50V42Z" fill="#5856D6" fill-opacity="0.2"/>
  <path d="M20.2929 42.2929C19.9024 42.6834 19.9024 43.3166 20.2929 43.7071L26.6569 50.0711C27.0474 50.4616 27.6805 50.4616 28.0711 50.0711C28.4616 49.6805 28.4616 49.0474 28.0711 48.6569L22.4142 43L28.0711 37.3431C28.4616 36.9526 28.4616 36.3195 28.0711 35.9289C27.6805 35.5384 27.0474 35.5384 26.6569 35.9289L20.2929 42.2929ZM43.7071 35.9289C43.3166 35.5384 42.6834 35.5384 42.2929 35.9289C41.9024 36.3195 41.9024 36.9526 42.2929 37.3431L47.9497 43L42.2929 48.6569C41.9024 49.0474 41.9024 49.6805 42.2929 50.0711C42.6834 50.4616 43.3166 50.4616 43.7071 50.0711L50.0711 43.7071C50.4616 43.3166 50.4616 42.6834 50.0711 42.2929L43.7071 35.9289ZM31.7929 51.1213C32.1834 51.5118 32.8166 51.5118 33.2071 51.1213L39.5711 44.7574C39.9616 44.3668 39.9616 43.7337 39.5711 43.3431C39.1805 42.9526 38.5474 42.9526 38.1569 43.3431L32.5 48.9999L26.8431 43.3431C26.4526 42.9526 25.8195 42.9526 25.4289 43.3431C25.0384 43.7337 25.0384 44.3668 25.4289 44.7574L31.7929 51.1213ZM32 34.5L32 50.5L33 50.5L33 34.5L32 34.5Z" fill="#5856D6"/>
</svg>