<?xml version="1.0" encoding="UTF-8"?>
<svg width="64" height="64" viewBox="0 0 64 64" fill="none" xmlns="http://www.w3.org/2000/svg">
  <path d="M27 12C27 10.3431 28.3431 9 30 9H34C35.6569 9 37 10.3431 37 12V36C37 37.6569 35.6569 39 34 39H30C28.3431 39 27 37.6569 27 36V12Z" fill="#5856D6"/>
  <path d="M32 16L37 23H27L32 16Z" fill="white"/>
  <path d="M12 27C10.3431 27 9 28.3431 9 30V34C9 35.6569 10.3431 37 12 37H36C37.6569 37 39 35.6569 39 34V30C39 28.3431 37.6569 27 36 27H12Z" fill="#5856D6"/>
  <path d="M16 32L23 27V37L16 32Z" fill="white"/>
  <path d="M42 42C42 40.3431 43.3431 39 45 39H51C52.6569 39 54 40.3431 54 42V48C54 49.6569 52.6569 51 51 51H45C43.3431 51 42 49.6569 42 48V42Z" fill="#5856D6"/>
  <path d="M48 55L41 45H55L48 55Z" fill="#5856D6"/>
</svg>