<?xml version="1.0" encoding="UTF-8"?>
<svg width="64" height="64" viewBox="0 0 64 64" fill="none" xmlns="http://www.w3.org/2000/svg">
  <path d="M18 20C18 13.3726 23.3726 8 30 8H34C40.6274 8 46 13.3726 46 20V24C46 30.6274 40.6274 36 34 36H30C23.3726 36 18 30.6274 18 24V20Z" fill="#5856D6" fill-opacity="0.2"/>
  <path d="M22 20C22 15.5817 25.5817 12 30 12H34C38.4183 12 42 15.5817 42 20V24C42 28.4183 38.4183 32 34 32H30C25.5817 32 22 28.4183 22 24V20Z" fill="#5856D6"/>
  <circle cx="32" cy="22" r="4" fill="white"/>
  <path d="M24 40L32 48L40 40" stroke="#5856D6" stroke-width="4" stroke-linecap="round" stroke-linejoin="round"/>
  <path d="M24 48L32 56L40 48" stroke="#5856D6" stroke-width="4" stroke-linecap="round" stroke-linejoin="round"/>
</svg>