<?xml version="1.0" encoding="UTF-8"?>
<svg width="800" height="600" viewBox="0 0 800 600" fill="none" xmlns="http://www.w3.org/2000/svg">
  <rect width="800" height="600" fill="#F5F5F7"/>
  <rect x="200" y="200" width="400" height="200" rx="12" fill="#5856D6" fill-opacity="0.1"/>
  <path d="M361.64 300.4C361.64 297.76 362.04 295.36 362.84 293.2C363.64 291.04 364.72 289.24 366.08 287.8C367.44 286.36 369 285.28 370.76 284.56C372.52 283.84 374.32 283.48 376.16 283.48C378.16 283.48 380 283.84 381.68 284.56C383.36 285.28 384.8 286.36 386 287.8C387.2 289.24 388.12 291.04 388.76 293.2C389.4 295.36 389.72 297.76 389.72 300.4C389.72 303.04 389.4 305.44 388.76 307.6C388.12 309.76 387.2 311.56 386 313C384.8 314.44 383.36 315.52 381.68 316.24C380 316.96 378.16 317.32 376.16 317.32C374.32 317.32 372.52 316.96 370.76 316.24C369 315.52 367.44 314.44 366.08 313C364.72 311.56 363.64 309.76 362.84 307.6C362.04 305.44 361.64 303.04 361.64 300.4ZM368.44 300.4C368.44 302.16 368.64 303.68 369.04 304.96C369.44 306.24 369.96 307.28 370.6 308.08C371.24 308.88 371.96 309.48 372.76 309.88C373.56 310.28 374.36 310.48 375.16 310.48C376.04 310.48 376.88 310.28 377.68 309.88C378.48 309.48 379.2 308.88 379.84 308.08C380.48 307.28 380.96 306.24 381.28 304.96C381.6 303.68 381.76 302.16 381.76 300.4C381.76 298.64 381.6 297.12 381.28 295.84C380.96 294.56 380.48 293.52 379.84 292.72C379.2 291.92 378.48 291.32 377.68 290.92C376.88 290.52 376.04 290.32 375.16 290.32C374.36 290.32 373.56 290.52 372.76 290.92C371.96 291.32 371.24 291.92 370.6 292.72C369.96 293.52 369.44 294.56 369.04 295.84C368.64 297.12 368.44 298.64 368.44 300.4ZM393.566 285H400.726L406.646 304.72H406.806L412.326 285H419.046L409.926 316.16H402.926L393.566 285ZM425.087 285H431.767V316.16H425.087V285ZM442.336 316.16H436.016V285H442.216L452.696 306.56H452.856V285H459.176V316.16H453.216L442.496 294.08H442.336V316.16Z" fill="#5856D6"/>
</svg>